<?xml version="1.0" encoding="UTF-8" standalone="no"?>
<!-- Created with Inkscape (http://www.inkscape.org/) -->

<svg
   width="100"
   height="100"
   viewBox="0 0 100 100"
   version="1.1"
   id="svg290"
   inkscape:version="1.2.1 (9c6d41e410, 2022-07-14, custom)"
   sodipodi:docname="stack-v2.svg"
   xmlns:inkscape="http://www.inkscape.org/namespaces/inkscape"
   xmlns:sodipodi="http://sodipodi.sourceforge.net/DTD/sodipodi-0.dtd"
   xmlns="http://www.w3.org/2000/svg"
   xmlns:svg="http://www.w3.org/2000/svg">
  <sodipodi:namedview
     id="namedview292"
     pagecolor="#141414"
     bordercolor="#000000"
     borderopacity="0.24705882"
     inkscape:showpageshadow="2"
     inkscape:pageopacity="1"
     inkscape:pagecheckerboard="false"
     inkscape:deskcolor="#1a1b26"
     inkscape:document-units="px"
     showgrid="false"
     guidecolor="#5784d5"
     guideopacity="0.2"
     inkscape:lockguides="false"
     showguides="true"
     guidehicolor="#ff9e64"
     guidehiopacity="0.49803922"
     inkscape:zoom="11.37"
     inkscape:cx="44.459103"
     inkscape:cy="34.564644"
     inkscape:window-width="1667"
     inkscape:window-height="1800"
     inkscape:window-x="0"
     inkscape:window-y="0"
     inkscape:window-maximized="1"
     inkscape:current-layer="layer1">
    <inkscape:grid
       type="xygrid"
       id="grid1198"
       dotted="true"
       empcolor="#3e4b6c"
       empopacity="0.98431373"
       color="#2c354c"
       opacity="0.4"
       empspacing="5"
       originx="0"
       originy="0"
       visible="true" />
    <sodipodi:guide
       position="0,100"
       orientation="0,100"
       id="guide1204"
       inkscape:locked="false" />
    <sodipodi:guide
       position="100,100"
       orientation="100,0"
       id="guide1206"
       inkscape:locked="false" />
    <sodipodi:guide
       position="100,0"
       orientation="0,-100"
       id="guide1208"
       inkscape:locked="false" />
    <sodipodi:guide
       position="0,0"
       orientation="-100,0"
       id="guide1210"
       inkscape:locked="false" />
    <sodipodi:guide
       position="10,90"
       orientation="1,0"
       id="guide1212"
       inkscape:locked="false" />
    <sodipodi:guide
       position="90,10"
       orientation="1,0"
       id="guide1214"
       inkscape:locked="false" />
    <sodipodi:guide
       position="10,90"
       orientation="0,-1"
       id="guide1216"
       inkscape:locked="false" />
    <sodipodi:guide
       position="90,10"
       orientation="0,-1"
       id="guide1218"
       inkscape:locked="false" />
    <sodipodi:guide
       position="50,50"
       orientation="0.17364817,0.98480775"
       id="guide1262"
       inkscape:locked="false"
       inkscape:label=""
       inkscape:color="rgb(87,132,213)" />
    <sodipodi:guide
       position="50,50"
       orientation="0.98480775,-0.17364817"
       id="guide1264"
       inkscape:locked="false"
       inkscape:label=""
       inkscape:color="rgb(87,132,213)" />
    <sodipodi:guide
       position="50,50"
       orientation="0.70710678,0.70710678"
       id="guide3063"
       inkscape:locked="false"
       inkscape:label=""
       inkscape:color="rgb(87,132,213)" />
    <sodipodi:guide
       position="50,50"
       orientation="0.8660254,0.5"
       id="guide3065"
       inkscape:label=""
       inkscape:locked="false"
       inkscape:color="rgb(87,132,213)" />
    <sodipodi:guide
       position="50,50"
       orientation="0.96592583,0.25881905"
       id="guide3080"
       inkscape:label=""
       inkscape:locked="false"
       inkscape:color="rgb(87,132,213)" />
    <sodipodi:guide
       position="50,50"
       orientation="0.5,-0.8660254"
       id="guide3090"
       inkscape:label=""
       inkscape:locked="false"
       inkscape:color="rgb(87,132,213)" />
    <sodipodi:guide
       position="50,50"
       orientation="0.25881905,-0.96592583"
       id="guide3092"
       inkscape:label=""
       inkscape:locked="false"
       inkscape:color="rgb(87,132,213)" />
    <sodipodi:guide
       position="50,50"
       orientation="0.5,0.8660254"
       id="guide3096"
       inkscape:label=""
       inkscape:locked="false"
       inkscape:color="rgb(87,132,213)" />
    <sodipodi:guide
       position="50.000001,79.673178"
       orientation="0,-1"
       id="guide6932"
       inkscape:locked="false" />
    <sodipodi:guide
       position="49.97258,20.347786"
       orientation="0,-1"
       id="guide6934"
       inkscape:locked="false" />
    <sodipodi:guide
       position="17.119162,51.625"
       orientation="1,0"
       id="guide6936"
       inkscape:locked="false" />
    <sodipodi:guide
       position="82.88084,48.14815"
       orientation="1,0"
       id="guide6938"
       inkscape:locked="false" />
    <sodipodi:guide
       position="50,50"
       orientation="0.74314483,-0.6691306"
       id="guide7345"
       inkscape:label=""
       inkscape:locked="false"
       inkscape:color="rgb(87,132,213)" />
  </sodipodi:namedview>
  <defs
     id="defs287">
    <inkscape:perspective
       sodipodi:type="inkscape:persp3d"
       inkscape:vp_x="0 : 50 : 1"
       inkscape:vp_y="0 : 1000 : 0"
       inkscape:vp_z="100 : 50 : 1"
       inkscape:persp3d-origin="50 : 33.333333 : 1"
       id="perspective1835" />
    <filter
       style="color-interpolation-filters:sRGB;"
       inkscape:label="Drop Shadow"
       id="filter3827"
       x="-0.094300089"
       y="-0.087029504"
       width="1.1951488"
       height="1.1801027">
      <feFlood
         flood-opacity="0.74902"
         flood-color="rgb(0,0,0)"
         result="flood"
         id="feFlood3817" />
      <feComposite
         in="flood"
         in2="SourceGraphic"
         operator="in"
         result="composite1"
         id="feComposite3819" />
      <feGaussianBlur
         in="composite1"
         stdDeviation="3"
         result="blur"
         id="feGaussianBlur3821" />
      <feOffset
         dx="0.5"
         dy="0.5"
         result="offset"
         id="feOffset3823" />
      <feComposite
         in="SourceGraphic"
         in2="offset"
         operator="over"
         result="composite2"
         id="feComposite3825" />
    </filter>
  </defs>
  <g
     inkscape:label="Layer 1"
     inkscape:groupmode="layer"
     id="layer1"
     transform="translate(-12.754285,-65.570005)"
     style="display:inline">
    <rect
       style="fill:#0f0f14;fill-opacity:1;stroke:none;stroke-width:0.5;stroke-linecap:round;stroke-linejoin:round;stroke-dasharray:none;stroke-dashoffset:0;stroke-opacity:1;paint-order:stroke fill markers"
       id="rect6688"
       width="100"
       height="100"
       x="12.532464"
       y="65.670769" />
    <path
       sodipodi:type="star"
       style="fill:#10111c;fill-opacity:1;stroke:none;stroke-width:0.5;stroke-linecap:round;stroke-linejoin:round;stroke-dasharray:none;stroke-dashoffset:0;stroke-opacity:1;paint-order:stroke fill markers"
       id="path6827"
       inkscape:flatsided="true"
       sodipodi:sides="6"
       sodipodi:cx="7.7158203"
       sodipodi:cy="10.539633"
       sodipodi:r1="67.401878"
       sodipodi:r2="58.371738"
       sodipodi:arg1="0.52359878"
       sodipodi:arg2="1.0471976"
       inkscape:rounded="0.14"
       inkscape:randomized="-0.016"
       d="M 66.020416,44.016995 C 61.155414,52.073271 17.961027,77.50116 8.5760726,77.545011 -0.80888145,77.588862 -45.246005,52.598148 -49.844467,44.367958 c -4.598463,-8.23019 -4.471393,-59.734836 0.04627,-68.034043 4.517663,-8.299207 48.81103231,-33.21272 58.3105436,-32.974648 9.4995114,0.238073 52.6794954,24.548336 57.5543404,32.623684 4.874845,8.075349 4.818732,59.977768 -0.04627,68.034044 z"
       transform="matrix(0.68715201,0.16043279,-0.16043279,0.68715201,58.784026,107.04157)"
       inkscape:transform-center-x="-0.45226252"
       inkscape:transform-center-y="-0.35027919" />
    <path
       sodipodi:type="star"
       style="fill:#191a29;fill-opacity:1;stroke:none;stroke-width:0.5;stroke-linecap:round;stroke-linejoin:round;stroke-dasharray:none;stroke-dashoffset:0;stroke-opacity:1;paint-order:stroke fill markers"
       id="path3695"
       inkscape:flatsided="true"
       sodipodi:sides="6"
       sodipodi:cx="10.086806"
       sodipodi:cy="9.7792969"
       sodipodi:r1="41.349632"
       sodipodi:r2="35.809834"
       sodipodi:arg1="0.52359878"
       sodipodi:arg2="1.0471976"
       inkscape:rounded="0.12"
       inkscape:randomized="-0.027"
       d="M 46.730569,29.813753 C 44.292732,34.08916 16.06601,51.564546 11.050063,51.411166 6.0341157,51.257787 -22.930565,34.250577 -25.57791,30.071977 c -2.647344,-4.178599 -2.297513,-36.9633527 0.05968,-41.294603 2.357193,-4.331251 31.6693062,-19.987122 36.611743,-20.116766 4.942436,-0.129645 33.288632,15.584092 35.696735,19.858542 2.408104,4.2744494 2.378158,37.019197 -0.05968,41.294603 z"
       transform="matrix(0.95954267,-0.11477483,0.11305083,0.95683858,51.520294,107.24743)" />
    <path
       sodipodi:type="star"
       style="fill:#222536;fill-opacity:1;stroke:none;stroke-width:0.5;stroke-linecap:round;stroke-linejoin:round;stroke-dasharray:none;stroke-dashoffset:0;stroke-opacity:1;paint-order:stroke fill markers"
       id="path3059"
       inkscape:flatsided="true"
       sodipodi:sides="6"
       sodipodi:cx="45"
       sodipodi:cy="45"
       sodipodi:r1="38.078865"
       sodipodi:r2="32.977264"
       sodipodi:arg1="2.0943951"
       sodipodi:arg2="2.6179939"
       inkscape:rounded="0.1"
       inkscape:randomized="0"
       d="M 25.960568,77.977265 C 22.662841,76.073321 6.921135,48.807887 6.9211349,45 c 0,-3.807886 15.7417061,-31.073321 19.0394321,-32.977264 3.297727,-1.903944 34.781139,-1.903944 38.078865,-10e-7 C 67.337159,13.926679 83.078865,41.192113 83.078865,45 c 0,3.807886 -15.741706,31.073321 -19.039432,32.977264 -3.297727,1.903944 -34.781139,1.903944 -38.078865,10e-7 z"
       transform="matrix(0.42749104,-0.74842116,0.75026334,0.42854328,9.7553386,129.96451)" />
    <path
       sodipodi:type="star"
       style="display:inline;fill:#4d567a;fill-opacity:1;stroke:none;stroke-width:0.5;stroke-linecap:round;stroke-linejoin:round;stroke-dasharray:none;stroke-dashoffset:0;stroke-opacity:1;paint-order:stroke fill markers"
       id="path3059-5"
       inkscape:flatsided="true"
       sodipodi:sides="6"
       sodipodi:cx="45"
       sodipodi:cy="45"
       sodipodi:r1="38.078865"
       sodipodi:r2="32.977264"
       sodipodi:arg1="2.0943951"
       sodipodi:arg2="2.6179939"
       inkscape:rounded="0.12"
       inkscape:randomized="0.008"
       d="M 26.018544,77.702273 C 22.049827,75.473673 6.8606273,49.78124 6.8449944,45.199487 6.8293616,40.617735 22.056162,14.217679 26.017153,11.916556 c 3.96099,-2.301124 33.916037,-2.4112689 37.88637,-0.14988 3.970333,2.261388 19.222752,28.536719 19.17355,33.112047 -0.0492,4.575328 -15.186054,31.034578 -19.172159,33.282932 -3.986105,2.248353 -33.917653,1.769218 -37.88637,-0.459382 z"
       transform="matrix(0.40109844,0.03945681,-0.03955394,0.4020857,46.501273,95.705877)" />
    <path
       sodipodi:type="star"
       style="display:inline;fill:#6f789c;fill-opacity:1;stroke:none;stroke-width:0.5;stroke-linecap:round;stroke-linejoin:round;stroke-dasharray:none;stroke-dashoffset:0;stroke-opacity:1;paint-order:stroke fill markers"
       id="path3059-5-2"
       inkscape:flatsided="true"
       sodipodi:sides="6"
       sodipodi:cx="45"
       sodipodi:cy="45"
       sodipodi:r1="38.078865"
       sodipodi:r2="32.977264"
       sodipodi:arg1="2.0943951"
       sodipodi:arg2="2.6179939"
       inkscape:rounded="0.14"
       inkscape:randomized="0"
       d="M 25.960568,77.977265 C 21.343751,75.311744 6.921135,50.331041 6.9211349,45 c 0,-5.331041 14.4226151,-30.311744 19.0394321,-32.977264 4.616817,-2.665521 33.462048,-2.6655211 38.078865,-10e-7 C 68.656249,14.688256 83.078865,39.668959 83.078865,45 c 0,5.331041 -14.422615,30.311744 -19.039432,32.977264 -4.616817,2.665521 -33.462048,2.665521 -38.078865,10e-7 z"
       transform="matrix(0.25262175,-0.05994359,0.06009112,0.25324355,48.682206,106.87151)" />
    <path
       sodipodi:type="star"
       style="display:inline;fill:#979fc2;fill-opacity:1;stroke:none;stroke-width:0.5;stroke-linecap:round;stroke-linejoin:round;stroke-dasharray:none;stroke-dashoffset:0;stroke-opacity:1;paint-order:stroke fill markers"
       id="path3059-5-2-9"
       inkscape:flatsided="true"
       sodipodi:sides="6"
       sodipodi:cx="45"
       sodipodi:cy="45"
       sodipodi:r1="38.078865"
       sodipodi:r2="32.977264"
       sodipodi:arg1="2.0943951"
       sodipodi:arg2="2.6179939"
       inkscape:rounded="0.2"
       inkscape:randomized="-0.005"
       d="M 25.924332,78.149134 C 19.341458,74.28274 6.9525097,52.478248 6.9687228,44.875321 6.9849359,37.272393 19.333673,15.879941 25.925201,12.089098 c 6.591529,-3.790843 31.617444,-3.7384638 38.199175,0.09367 6.581731,3.832139 18.904468,25.283808 18.955609,32.893025 0.05114,7.609217 -12.391338,28.940739 -18.956478,32.786223 -6.565141,3.845483 -31.616301,4.153508 -38.199175,0.287113 z"
       transform="matrix(0.16642102,-0.1258093,0.12611895,0.16683067,49.368658,113.80066)" />
    <path
       sodipodi:type="star"
       style="display:inline;fill:#bac2de;fill-opacity:1;stroke:none;stroke-width:0.5;stroke-linecap:round;stroke-linejoin:round;stroke-dasharray:none;stroke-dashoffset:0;stroke-opacity:1;paint-order:stroke fill markers"
       id="path3059-5-2-9-1"
       inkscape:flatsided="true"
       sodipodi:sides="6"
       sodipodi:cx="45"
       sodipodi:cy="45"
       sodipodi:r1="38.078865"
       sodipodi:r2="32.977264"
       sodipodi:arg1="2.0943951"
       sodipodi:arg2="2.6179939"
       inkscape:rounded="0.14"
       inkscape:randomized="0.001"
       d="M 25.967815,77.942891 C 21.349279,75.285559 6.9138918,50.357773 6.9116174,45.024936 6.9093429,39.692099 21.350277,14.677372 25.967641,12.009463 c 4.617363,-2.6679086 33.436072,-2.6808561 38.054803,-0.01873 4.61873,2.662121 19.063364,27.662182 19.056197,32.994112 -0.0072,5.33193 -14.43498,30.355235 -19.056023,33.015473 -4.621043,2.660238 -33.436268,2.599909 -38.054803,-0.05742 z"
       transform="matrix(0.08748566,-0.02934751,0.02941973,0.08770098,57.493936,112.94687)" />
    <path
       sodipodi:type="star"
       style="display:inline;fill:#e1e5f5;fill-opacity:1;stroke:none;stroke-width:0.5;stroke-linecap:round;stroke-linejoin:round;stroke-dasharray:none;stroke-dashoffset:0;stroke-opacity:1;paint-order:stroke fill markers"
       id="path3059-5-2-9-1-9"
       inkscape:flatsided="true"
       sodipodi:sides="6"
       sodipodi:cx="45"
       sodipodi:cy="45"
       sodipodi:r1="38.078865"
       sodipodi:r2="32.977264"
       sodipodi:arg1="2.0943951"
       sodipodi:arg2="2.6179939"
       inkscape:rounded="0.14"
       inkscape:randomized="0.001"
       d="M 25.967815,77.942891 C 21.349279,75.285559 6.9138918,50.357773 6.9116174,45.024936 6.9093429,39.692099 21.350277,14.677372 25.967641,12.009463 c 4.617363,-2.6679086 33.436072,-2.6808561 38.054803,-0.01873 4.61873,2.662121 19.063364,27.662182 19.056197,32.994112 -0.0072,5.33193 -14.43498,30.355235 -19.056023,33.015473 -4.621043,2.660238 -33.436268,2.599909 -38.054803,-0.05742 z"
       transform="matrix(0.04741161,-0.02970793,0.02978104,0.0475283,59.280678,114.76952)" />
    <path
       sodipodi:type="star"
       style="fill:#f56d84;fill-opacity:1;stroke:none;stroke-width:0.604228;stroke-linecap:round;stroke-linejoin:round;stroke-dasharray:none;stroke-dashoffset:0;stroke-opacity:1;paint-order:stroke fill markers"
       id="path2944"
       inkscape:flatsided="true"
       sodipodi:sides="6"
       sodipodi:cx="85"
       sodipodi:cy="45"
       sodipodi:r1="5"
       sodipodi:r2="4.3301268"
       sodipodi:arg1="1.5707963"
       sodipodi:arg2="2.0943951"
       inkscape:rounded="0.07"
       inkscape:randomized="0"
       d="m 85,50 c -0.35,0 -4.155127,-2.196891 -4.330127,-2.5 -0.175,-0.303109 -0.175,-4.696891 0,-5 C 80.844873,42.196891 84.65,40 85,40 c 0.35,0 4.155127,2.196891 4.330127,2.5 0.175,0.303109 0.175,4.696891 0,5 C 89.155127,47.803109 85.35,50 85,50 Z"
       transform="matrix(0.62938636,0.53724467,-0.53724467,0.62938636,63.920621,46.957708)" />
    <path
       sodipodi:type="star"
       style="display:inline;fill:#f5b26f;fill-opacity:1;stroke:none;stroke-width:0.604228;stroke-linecap:round;stroke-linejoin:round;stroke-dasharray:none;stroke-dashoffset:0;stroke-opacity:1;paint-order:stroke fill markers"
       id="path2944-62"
       inkscape:flatsided="true"
       sodipodi:sides="6"
       sodipodi:cx="85"
       sodipodi:cy="45"
       sodipodi:r1="5"
       sodipodi:r2="4.3301268"
       sodipodi:arg1="1.5707963"
       sodipodi:arg2="2.0943951"
       inkscape:rounded="-3.0184188e-16"
       inkscape:randomized="-6.9388939e-18"
       d="m 85,50 -4.330127,-2.5 0,-5 L 85,40 l 4.330127,2.5 0,5 z"
       transform="matrix(1.1198393,-0.0069936,0.00704478,1.111704,-7.2643362,51.484688)" />
    <path
       sodipodi:type="star"
       style="display:inline;fill:#6eb2f5;fill-opacity:1;stroke:none;stroke-width:0.604228;stroke-linecap:round;stroke-linejoin:round;stroke-dasharray:none;stroke-dashoffset:0;stroke-opacity:1;paint-order:stroke fill markers"
       id="path2944-62-8"
       inkscape:flatsided="true"
       sodipodi:sides="6"
       sodipodi:cx="85"
       sodipodi:cy="45"
       sodipodi:r1="5"
       sodipodi:r2="4.3301268"
       sodipodi:arg1="1.5707963"
       sodipodi:arg2="2.0943951"
       inkscape:rounded="-3.0184188e-16"
       inkscape:randomized="-6.9388939e-18"
       d="m 85,50 -4.330127,-2.5 0,-5 L 85,40 l 4.330127,2.5 0,5 z"
       transform="matrix(0.8274853,-0.00520561,0.00520561,0.8274853,-32.653041,93.188918)" />
    <path
       sodipodi:type="star"
       style="display:inline;fill:#6ef5b1;fill-opacity:1;stroke:none;stroke-width:0.604228;stroke-linecap:round;stroke-linejoin:round;stroke-dasharray:none;stroke-dashoffset:0;stroke-opacity:1;paint-order:stroke fill markers"
       id="path2944-62-8-7"
       inkscape:flatsided="true"
       sodipodi:sides="6"
       sodipodi:cx="85"
       sodipodi:cy="45"
       sodipodi:r1="5"
       sodipodi:r2="4.3301268"
       sodipodi:arg1="1.5707963"
       sodipodi:arg2="2.0943951"
       inkscape:rounded="-3.0184188e-16"
       inkscape:randomized="-6.9388939e-18"
       d="m 85,50 -4.330127,-2.5 0,-5 L 85,40 l 4.330127,2.5 0,5 z"
       transform="matrix(0.60171744,-0.00378533,0.00378533,0.60171744,-14.69229,73.728164)" />
    <path
       sodipodi:type="star"
       style="display:inline;fill:#f56ed3;fill-opacity:1;stroke:none;stroke-width:0.604228;stroke-linecap:round;stroke-linejoin:round;stroke-dasharray:none;stroke-dashoffset:0;stroke-opacity:1;paint-order:stroke fill markers"
       id="path2944-62-8-7-9"
       inkscape:flatsided="true"
       sodipodi:sides="6"
       sodipodi:cx="85"
       sodipodi:cy="45"
       sodipodi:r1="5"
       sodipodi:r2="4.3301268"
       sodipodi:arg1="1.5707963"
       sodipodi:arg2="2.0943951"
       inkscape:rounded="0.69"
       inkscape:randomized="-6.9388939e-18"
       d="m 85,50 c -3.45,0 -2.605127,0.487788 -4.330127,-2.5 -1.725,-2.987787 -1.725,-2.012212 0,-5 C 82.394873,39.512212 81.55,40 85,40 c 3.45,0 2.605127,-0.487788 4.330127,2.5 1.725,2.987787 1.725,2.012212 0,5 C 87.605127,50.487788 88.45,50 85,50 Z"
       transform="matrix(0.13806168,-0.52797367,0.52797367,0.13806168,48.926348,175.90111)" />
    <path
       sodipodi:type="star"
       style="display:inline;fill:#9b6ef5;fill-opacity:1;stroke:none;stroke-width:0.604228;stroke-linecap:round;stroke-linejoin:round;stroke-dasharray:none;stroke-dashoffset:0;stroke-opacity:1;paint-order:stroke fill markers"
       id="path2944-62-8-7-9-2"
       inkscape:flatsided="true"
       sodipodi:sides="6"
       sodipodi:cx="85"
       sodipodi:cy="45"
       sodipodi:r1="5"
       sodipodi:r2="4.3301268"
       sodipodi:arg1="1.5707963"
       sodipodi:arg2="2.0943951"
       inkscape:rounded="0.08"
       inkscape:randomized="-0.031"
       d="m 85.076559,49.884374 c -0.402039,-0.0039 -4.27811,-2.192637 -4.470565,-2.537831 -0.192456,-0.345195 -0.19524,-4.51757 0.0016,-4.866099 0.196835,-0.348529 3.959924,-2.329888 4.360919,-2.327995 0.400995,0.0019 4.251089,2.125062 4.465151,2.461214 0.214063,0.336152 0.194643,4.510819 -0.0016,4.866098 -0.196238,0.35528 -3.953466,2.408521 -4.355505,2.404613 z"
       transform="matrix(0.81069786,0.16591564,-0.16591564,0.81069786,-3.9384419,94.619329)" />
    <path
       sodipodi:type="star"
       style="display:inline;fill:#9bf56e;fill-opacity:1;stroke:none;stroke-width:0.604228;stroke-linecap:round;stroke-linejoin:round;stroke-dasharray:none;stroke-dashoffset:0;stroke-opacity:1;paint-order:stroke fill markers"
       id="path2944-62-8-7-9-2-0"
       inkscape:flatsided="true"
       sodipodi:sides="6"
       sodipodi:cx="85"
       sodipodi:cy="45"
       sodipodi:r1="5"
       sodipodi:r2="4.3301268"
       sodipodi:arg1="1.5707963"
       sodipodi:arg2="2.0943951"
       inkscape:rounded="0.13"
       inkscape:randomized="0.018"
       d="m 84.955546,50.067138 c -0.648047,0.0037 -3.916404,-1.914082 -4.248582,-2.478033 -0.332178,-0.563952 -0.328895,-4.516854 -9.26e-4,-5.07775 0.327969,-0.560896 3.663193,-2.598094 4.312248,-2.599874 0.649054,-0.0018 3.940361,1.950363 4.251725,2.522521 0.311365,0.572158 0.329279,4.523212 9.27e-4,5.077749 -0.328352,0.554538 -3.667344,2.551729 -4.315392,2.555387 z"
       transform="matrix(0.79136137,-0.24188002,0.24188002,0.79136137,-23.340694,70.850222)" />
    <path
       sodipodi:type="star"
       style="display:inline;fill:#6ef5f5;fill-opacity:1;stroke:none;stroke-width:0.604228;stroke-linecap:round;stroke-linejoin:round;stroke-dasharray:none;stroke-dashoffset:0;stroke-opacity:1;paint-order:stroke fill markers"
       id="path2944-9"
       inkscape:flatsided="true"
       sodipodi:sides="6"
       sodipodi:cx="85"
       sodipodi:cy="45"
       sodipodi:r1="5"
       sodipodi:r2="4.3301268"
       sodipodi:arg1="1.5707963"
       sodipodi:arg2="2.0943951"
       inkscape:rounded="-3.0184188e-16"
       inkscape:randomized="-6.9388939e-18"
       d="m 85,50 -4.330127,-2.5 0,-5 L 85,40 l 4.330127,2.5 0,5 z"
       transform="matrix(0.71663746,0.41375086,-0.41375086,0.71663746,-12.421949,48.152497)" />
    <path
       sodipodi:type="star"
       style="display:inline;fill:#f5dd62;fill-opacity:1;stroke:none;stroke-width:0.604228;stroke-linecap:round;stroke-linejoin:round;stroke-dasharray:none;stroke-dashoffset:0;stroke-opacity:1;paint-order:stroke fill markers"
       id="path2944-5"
       inkscape:flatsided="true"
       sodipodi:sides="6"
       sodipodi:cx="85"
       sodipodi:cy="45"
       sodipodi:r1="5"
       sodipodi:r2="4.3301268"
       sodipodi:arg1="1.5707963"
       sodipodi:arg2="2.0943951"
       inkscape:rounded="-3.0184188e-16"
       inkscape:randomized="-6.9388939e-18"
       d="m 85,50 -4.330127,-2.5 0,-5 L 85,40 l 4.330127,2.5 0,5 z"
       transform="matrix(0.72440249,-0.40000006,0.40000006,0.72440249,3.7981466,93.138273)" />
    <path
       sodipodi:type="star"
       style="display:inline;fill:#6e89f5;fill-opacity:1;stroke:none;stroke-width:0.604228;stroke-linecap:round;stroke-linejoin:round;stroke-dasharray:none;stroke-dashoffset:0;stroke-opacity:1;paint-order:stroke fill markers"
       id="path2944-6"
       inkscape:flatsided="true"
       sodipodi:sides="6"
       sodipodi:cx="85"
       sodipodi:cy="45"
       sodipodi:r1="5"
       sodipodi:r2="4.3301268"
       sodipodi:arg1="1.5707963"
       sodipodi:arg2="2.0943951"
       inkscape:rounded="0.12"
       inkscape:randomized="0.048"
       d="m 84.881457,50.179034 c -0.595153,0.009 -3.794919,-1.919428 -4.112674,-2.441422 -0.317756,-0.521994 -0.309754,-4.692723 -0.0025,-5.207332 0.307283,-0.514609 3.684786,-2.761961 4.282449,-2.76633 0.597662,-0.0044 3.855151,2.018372 4.121057,2.560055 0.265905,0.541683 0.310425,4.708351 0.0025,5.207332 -0.307955,0.498981 -3.69568,2.63874 -4.290832,2.647697 z"
       transform="matrix(0.62733042,0.53964393,-0.53964393,0.62733042,11.659249,65.964963)" />
  </g>
</svg>
